# xmcd
#
# Track frame offsets: 
#        150
#        23812
#        41975
#        64325
#        82932
#        107612
#        132075
#        149637
#        165700
#        190550
#
# Disc length: 2995 seconds
#
# Revision: 0
# Processed by: cddbd v1.4PL0 Copyright (c) Steve Scherf et al.
# Submitted via: ExactAudioCopy v0.90b4
#
DISCID=860bb10a
DTITLE=艾敬 - 我的1997
DYEAR=1992
DGENRE=Pop
TTITLE0=我的1997
TTITLE1=你的军装
TTITLE2=我要回家
TTITLE3=长夜不停的电话
TTITLE4=爱人你住在哪里
TTITLE5=流浪的燕子
TTITLE6=离家的时候
TTITLE7=请你稍稍温柔
TTITLE8=那年冬天
TTITLE9=我的1997(原作版)
EXTD=
EXTT0=
EXTT1=
EXTT2=
EXTT3=
EXTT4=
EXTT5=
EXTT6=
EXTT7=
EXTT8=
EXTT9=
PLAYORDER=
